<svg width="391" height="284" viewBox="0 0 391 284" fill="none" xmlns="http://www.w3.org/2000/svg">
<g clip-path="url(#clip0_133_22)">
<path d="M227.584 50.3085C234.894 50.3085 240.819 44.3831 240.819 37.0738C240.819 29.7645 234.894 23.8391 227.584 23.8391C220.275 23.8391 214.35 29.7645 214.35 37.0738C214.35 44.3831 220.275 50.3085 227.584 50.3085Z" fill="#F2F2F2"/>
<path d="M330.25 246.726C349.922 231.742 359.317 206.564 353.435 182.546C353.289 181.949 353.135 181.354 352.972 180.76C349.073 166.503 339.425 152.952 325.364 148.397C313.557 144.572 300.67 147.513 288.353 145.992C264.173 143.006 245.428 123.442 232.238 102.959C219.048 82.4752 208.911 59.5467 191.384 42.6242C162.494 14.7305 115.368 8.7249 79.5487 26.8817C43.7295 45.0385 20.9131 85.3209 21.8861 125.467C22.8592 165.614 46.6924 203.997 81.3041 224.361C94.019 231.842 108.725 237.142 123.36 235.287C136.06 233.678 147.598 226.855 160.237 224.829C180.109 221.644 199.854 230.629 217.042 241.099C234.23 251.569 250.832 263.979 270.363 268.832C289.328 273.546 312.824 259.999 330.25 246.726Z" fill="#F2F2F2"/>
<path d="M301.986 27.7247C301.555 27.4372 301.119 27.1646 300.687 26.887C288.222 18.9146 274.861 12.4379 260.88 7.59073L257.639 52.3097H237.088V1.06281C235.795 0.795152 234.491 0.542363 233.188 0.304443V52.3097H208.766C195.322 52.3097 182.428 46.969 172.922 37.4625C163.415 27.9559 158.074 15.0623 158.074 1.61802C156.766 1.90055 155.467 2.20286 154.168 2.52504V52.3097H134.277L131.189 9.66758C116.822 15.1776 103.183 22.4234 90.5745 31.2439C90.3564 31.3926 90.1383 31.5463 89.9252 31.695C88.8297 32.4633 87.7492 33.2464 86.6736 34.0395V204.643H145.296L144.26 190.293L138.56 111.507H253.351L247.651 190.293L246.615 204.643H304.588V29.4496C303.726 28.8647 302.858 28.2898 301.986 27.7247ZM154.168 98.4959H137.618L134.56 56.2156H154.168V98.4959ZM233.188 98.4959H205.391V97.6582C205.391 97.2555 205.311 96.8568 205.157 96.4848C205.003 96.1129 204.777 95.7749 204.492 95.4904C204.207 95.2059 203.868 94.9804 203.496 94.8267C203.124 94.6731 202.725 94.5943 202.322 94.595H190.238C189.836 94.5949 189.437 94.674 189.066 94.8279C188.694 94.9818 188.356 95.2074 188.072 95.4919C187.787 95.7763 187.562 96.1141 187.408 96.4858C187.254 96.8575 187.175 97.2559 187.175 97.6582V98.4959H158.074V56.2156H233.188V98.4959ZM237.088 98.4959V56.2156H257.356L254.298 98.4959H237.088Z" fill="#519872"/>
<path d="M0.409912 215.568C4.71589 220.67 9.37329 225.465 14.348 229.917L376.472 230.413C381.447 225.96 386.104 221.166 390.41 216.063L0.409912 215.568Z" fill="#519872"/>
<path d="M245.978 169.62V212.1C245.978 212.642 246.193 213.161 246.576 213.544C246.959 213.926 247.478 214.142 248.019 214.142H310.971C311.513 214.142 312.032 213.926 312.415 213.544C312.797 213.161 313.013 212.642 313.013 212.1V169.62C313.012 169.079 312.796 168.561 312.413 168.178C312.031 167.796 311.512 167.581 310.971 167.58H248.019C247.479 167.581 246.96 167.796 246.577 168.178C246.195 168.561 245.979 169.079 245.978 169.62Z" fill="#519872"/>
<path d="M247.455 170.148V211.576C247.455 211.865 247.57 212.143 247.775 212.347C247.979 212.552 248.257 212.667 248.546 212.667H310.447C310.736 212.667 311.014 212.552 311.218 212.347C311.423 212.143 311.538 211.865 311.538 211.576V170.148C311.538 169.859 311.423 169.581 311.219 169.376C311.014 169.171 310.737 169.055 310.447 169.055H248.546C248.256 169.055 247.979 169.171 247.774 169.376C247.57 169.581 247.455 169.859 247.455 170.148Z" fill="#A4B494"/>
<path d="M244.661 220.385C244.777 220.53 244.923 220.646 245.09 220.726C245.257 220.806 245.44 220.847 245.625 220.846H313.031C313.215 220.846 313.397 220.804 313.564 220.725C313.73 220.646 313.877 220.53 313.993 220.387C314.109 220.244 314.192 220.077 314.235 219.897C314.278 219.718 314.281 219.532 314.244 219.351L313.197 214.381C313.154 214.178 313.06 213.99 312.926 213.832C312.791 213.675 312.619 213.554 312.425 213.48C312.285 213.425 312.135 213.397 311.985 213.397H246.667C246.516 213.397 246.367 213.425 246.227 213.48C246.033 213.554 245.861 213.675 245.726 213.832C245.591 213.99 245.498 214.178 245.454 214.381L244.408 219.351C244.371 219.532 244.374 219.718 244.418 219.897C244.462 220.076 244.545 220.242 244.661 220.385Z" fill="#3B5249"/>
<path d="M309.672 215.538H311.264C311.398 215.538 311.506 215.429 311.506 215.296V214.534C311.506 214.4 311.398 214.292 311.264 214.292H309.672C309.538 214.292 309.43 214.4 309.43 214.534V215.296C309.43 215.429 309.538 215.538 309.672 215.538Z" fill="#519872"/>
<path d="M305.52 215.538H307.112C307.246 215.538 307.354 215.429 307.354 215.296V214.534C307.354 214.4 307.246 214.292 307.112 214.292H305.52C305.386 214.292 305.278 214.4 305.278 214.534V215.296C305.278 215.429 305.386 215.538 305.52 215.538Z" fill="#519872"/>
<path d="M301.368 215.538H302.96C303.093 215.538 303.202 215.429 303.202 215.296V214.534C303.202 214.4 303.093 214.292 302.96 214.292H301.368C301.234 214.292 301.126 214.4 301.126 214.534V215.296C301.126 215.429 301.234 215.538 301.368 215.538Z" fill="#519872"/>
<path d="M297.215 215.538H298.808C298.941 215.538 299.05 215.429 299.05 215.296V214.534C299.05 214.4 298.941 214.292 298.808 214.292H297.215C297.082 214.292 296.973 214.4 296.973 214.534V215.296C296.973 215.429 297.082 215.538 297.215 215.538Z" fill="#519872"/>
<path d="M293.063 215.538H294.655C294.789 215.538 294.897 215.429 294.897 215.296V214.534C294.897 214.4 294.789 214.292 294.655 214.292H293.063C292.929 214.292 292.821 214.4 292.821 214.534V215.296C292.821 215.429 292.929 215.538 293.063 215.538Z" fill="#519872"/>
<path d="M288.911 215.538H290.503C290.637 215.538 290.745 215.429 290.745 215.296V214.534C290.745 214.4 290.637 214.292 290.503 214.292H288.911C288.777 214.292 288.669 214.4 288.669 214.534V215.296C288.669 215.429 288.777 215.538 288.911 215.538Z" fill="#519872"/>
<path d="M284.759 215.538H286.351C286.484 215.538 286.593 215.429 286.593 215.296V214.534C286.593 214.4 286.484 214.292 286.351 214.292H284.759C284.625 214.292 284.517 214.4 284.517 214.534V215.296C284.517 215.429 284.625 215.538 284.759 215.538Z" fill="#519872"/>
<path d="M280.607 215.538H282.199C282.332 215.538 282.441 215.429 282.441 215.296V214.534C282.441 214.4 282.332 214.292 282.199 214.292H280.607C280.473 214.292 280.365 214.4 280.365 214.534V215.296C280.365 215.429 280.473 215.538 280.607 215.538Z" fill="#519872"/>
<path d="M276.454 215.538H278.047C278.18 215.538 278.289 215.429 278.289 215.296V214.534C278.289 214.4 278.18 214.292 278.047 214.292H276.454C276.321 214.292 276.212 214.4 276.212 214.534V215.296C276.212 215.429 276.321 215.538 276.454 215.538Z" fill="#519872"/>
<path d="M272.302 215.538H273.894C274.028 215.538 274.136 215.429 274.136 215.296V214.534C274.136 214.4 274.028 214.292 273.894 214.292H272.302C272.169 214.292 272.06 214.4 272.06 214.534V215.296C272.06 215.429 272.169 215.538 272.302 215.538Z" fill="#519872"/>
<path d="M268.15 215.538H269.742C269.876 215.538 269.984 215.429 269.984 215.296V214.534C269.984 214.4 269.876 214.292 269.742 214.292H268.15C268.016 214.292 267.908 214.4 267.908 214.534V215.296C267.908 215.429 268.016 215.538 268.15 215.538Z" fill="#519872"/>
<path d="M263.998 215.538H265.59C265.724 215.538 265.832 215.429 265.832 215.296V214.534C265.832 214.4 265.724 214.292 265.59 214.292H263.998C263.864 214.292 263.756 214.4 263.756 214.534V215.296C263.756 215.429 263.864 215.538 263.998 215.538Z" fill="#519872"/>
<path d="M259.846 215.538H261.438C261.571 215.538 261.68 215.429 261.68 215.296V214.534C261.68 214.4 261.571 214.292 261.438 214.292H259.846C259.712 214.292 259.604 214.4 259.604 214.534V215.296C259.604 215.429 259.712 215.538 259.846 215.538Z" fill="#519872"/>
<path d="M255.693 215.538H257.286C257.419 215.538 257.528 215.429 257.528 215.296V214.534C257.528 214.4 257.419 214.292 257.286 214.292H255.693C255.56 214.292 255.451 214.4 255.451 214.534V215.296C255.451 215.429 255.56 215.538 255.693 215.538Z" fill="#519872"/>
<path d="M251.541 215.538H253.134C253.267 215.538 253.375 215.429 253.375 215.296V214.534C253.375 214.4 253.267 214.292 253.134 214.292H251.541C251.408 214.292 251.299 214.4 251.299 214.534V215.296C251.299 215.429 251.408 215.538 251.541 215.538Z" fill="#519872"/>
<path d="M247.389 215.538H248.981C249.115 215.538 249.223 215.429 249.223 215.296V214.534C249.223 214.4 249.115 214.292 248.981 214.292H247.389C247.255 214.292 247.147 214.4 247.147 214.534V215.296C247.147 215.429 247.255 215.538 247.389 215.538Z" fill="#519872"/>
<path d="M309.721 217.614H311.313C311.447 217.614 311.555 217.506 311.555 217.372V216.61C311.555 216.477 311.447 216.368 311.313 216.368H309.721C309.587 216.368 309.479 216.477 309.479 216.61V217.372C309.479 217.506 309.587 217.614 309.721 217.614Z" fill="#519872"/>
<path d="M305.569 217.614H307.161C307.295 217.614 307.403 217.506 307.403 217.372V216.61C307.403 216.477 307.295 216.368 307.161 216.368H305.569C305.435 216.368 305.327 216.477 305.327 216.61V217.372C305.327 217.506 305.435 217.614 305.569 217.614Z" fill="#519872"/>
<path d="M301.417 217.614H303.009C303.142 217.614 303.251 217.506 303.251 217.372V216.61C303.251 216.477 303.142 216.368 303.009 216.368H301.417C301.283 216.368 301.175 216.477 301.175 216.61V217.372C301.175 217.506 301.283 217.614 301.417 217.614Z" fill="#519872"/>
<path d="M297.265 217.614H298.857C298.99 217.614 299.099 217.506 299.099 217.372V216.61C299.099 216.477 298.99 216.368 298.857 216.368H297.265C297.131 216.368 297.023 216.477 297.023 216.61V217.372C297.023 217.506 297.131 217.614 297.265 217.614Z" fill="#519872"/>
<path d="M293.112 217.614H294.704C294.838 217.614 294.946 217.506 294.946 217.372V216.61C294.946 216.477 294.838 216.368 294.704 216.368H293.112C292.979 216.368 292.87 216.477 292.87 216.61V217.372C292.87 217.506 292.979 217.614 293.112 217.614Z" fill="#519872"/>
<path d="M288.96 217.614H290.552C290.686 217.614 290.794 217.506 290.794 217.372V216.61C290.794 216.477 290.686 216.368 290.552 216.368H288.96C288.826 216.368 288.718 216.477 288.718 216.61V217.372C288.718 217.506 288.826 217.614 288.96 217.614Z" fill="#519872"/>
<path d="M284.808 217.614H286.4C286.533 217.614 286.642 217.506 286.642 217.372V216.61C286.642 216.477 286.533 216.368 286.4 216.368H284.808C284.674 216.368 284.566 216.477 284.566 216.61V217.372C284.566 217.506 284.674 217.614 284.808 217.614Z" fill="#519872"/>
<path d="M280.656 217.614H282.248C282.381 217.614 282.49 217.506 282.49 217.372V216.61C282.49 216.477 282.381 216.368 282.248 216.368H280.656C280.522 216.368 280.414 216.477 280.414 216.61V217.372C280.414 217.506 280.522 217.614 280.656 217.614Z" fill="#519872"/>
<path d="M276.504 217.614H278.096C278.229 217.614 278.338 217.506 278.338 217.372V216.61C278.338 216.477 278.229 216.368 278.096 216.368H276.504C276.37 216.368 276.262 216.477 276.262 216.61V217.372C276.262 217.506 276.37 217.614 276.504 217.614Z" fill="#519872"/>
<path d="M272.351 217.614H273.943C274.077 217.614 274.185 217.506 274.185 217.372V216.61C274.185 216.477 274.077 216.368 273.943 216.368H272.351C272.218 216.368 272.109 216.477 272.109 216.61V217.372C272.109 217.506 272.218 217.614 272.351 217.614Z" fill="#519872"/>
<path d="M268.199 217.614H269.791C269.925 217.614 270.033 217.506 270.033 217.372V216.61C270.033 216.477 269.925 216.368 269.791 216.368H268.199C268.065 216.368 267.957 216.477 267.957 216.61V217.372C267.957 217.506 268.065 217.614 268.199 217.614Z" fill="#519872"/>
<path d="M264.047 217.614H265.639C265.773 217.614 265.881 217.506 265.881 217.372V216.61C265.881 216.477 265.773 216.368 265.639 216.368H264.047C263.913 216.368 263.805 216.477 263.805 216.61V217.372C263.805 217.506 263.913 217.614 264.047 217.614Z" fill="#519872"/>
<path d="M259.895 217.614H261.487C261.621 217.614 261.729 217.506 261.729 217.372V216.61C261.729 216.477 261.621 216.368 261.487 216.368H259.895C259.761 216.368 259.653 216.477 259.653 216.61V217.372C259.653 217.506 259.761 217.614 259.895 217.614Z" fill="#519872"/>
<path d="M255.743 217.614H257.335C257.468 217.614 257.577 217.506 257.577 217.372V216.61C257.577 216.477 257.468 216.368 257.335 216.368H255.743C255.609 216.368 255.501 216.477 255.501 216.61V217.372C255.501 217.506 255.609 217.614 255.743 217.614Z" fill="#519872"/>
<path d="M251.59 217.614H253.183C253.316 217.614 253.425 217.506 253.425 217.372V216.61C253.425 216.477 253.316 216.368 253.183 216.368H251.59C251.457 216.368 251.348 216.477 251.348 216.61V217.372C251.348 217.506 251.457 217.614 251.59 217.614Z" fill="#519872"/>
<path d="M247.438 217.614H249.03C249.164 217.614 249.272 217.506 249.272 217.372V216.61C249.272 216.477 249.164 216.368 249.03 216.368H247.438C247.305 216.368 247.196 216.477 247.196 216.61V217.372C247.196 217.506 247.305 217.614 247.438 217.614Z" fill="#519872"/>
<path d="M275.258 220.105H291.383C291.516 220.105 291.625 219.997 291.625 219.863V219.102C291.625 218.968 291.516 218.86 291.383 218.86H275.258C275.124 218.86 275.016 218.968 275.016 219.102V219.863C275.016 219.997 275.124 220.105 275.258 220.105Z" fill="#519872"/>
<path d="M258.174 178.118H256.765C256.337 178.118 255.991 178.465 255.991 178.892C255.991 179.319 256.337 179.666 256.765 179.666H258.174C258.601 179.666 258.948 179.319 258.948 178.892C258.948 178.465 258.601 178.118 258.174 178.118Z" fill="white"/>
<path d="M274.295 178.118H272.885C272.458 178.118 272.111 178.465 272.111 178.892C272.111 179.319 272.458 179.666 272.885 179.666H274.295C274.722 179.666 275.068 179.319 275.068 178.892C275.068 178.465 274.722 178.118 274.295 178.118Z" fill="white"/>
<path d="M278.862 178.118H277.453C277.025 178.118 276.679 178.465 276.679 178.892C276.679 179.319 277.025 179.666 277.453 179.666H278.862C279.29 179.666 279.636 179.319 279.636 178.892C279.636 178.465 279.29 178.118 278.862 178.118Z" fill="white"/>
<path d="M269.91 177.989H261.15C260.722 177.989 260.376 178.336 260.376 178.763C260.376 179.19 260.722 179.537 261.15 179.537H269.91C270.337 179.537 270.684 179.19 270.684 178.763C270.684 178.336 270.337 177.989 269.91 177.989Z" fill="white"/>
<path d="M291.404 177.989H282.643C282.216 177.989 281.87 178.336 281.87 178.763C281.87 179.19 282.216 179.537 282.643 179.537H291.404C291.831 179.537 292.178 179.19 292.178 178.763C292.178 178.336 291.831 177.989 291.404 177.989Z" fill="white"/>
<path d="M262.473 181.611H261.063C260.636 181.611 260.29 181.958 260.29 182.385C260.29 182.812 260.636 183.159 261.063 183.159H262.473C262.9 183.159 263.247 182.812 263.247 182.385C263.247 181.958 262.9 181.611 262.473 181.611Z" fill="white"/>
<path d="M278.593 181.611H277.184C276.757 181.611 276.41 181.958 276.41 182.385C276.41 182.812 276.757 183.159 277.184 183.159H278.593C279.021 183.159 279.367 182.812 279.367 182.385C279.367 181.958 279.021 181.611 278.593 181.611Z" fill="white"/>
<path d="M283.161 181.611H281.752C281.324 181.611 280.978 181.958 280.978 182.385C280.978 182.812 281.324 183.159 281.752 183.159H283.161C283.588 183.159 283.935 182.812 283.935 182.385C283.935 181.958 283.588 181.611 283.161 181.611Z" fill="white"/>
<path d="M274.208 181.482H265.448C265.021 181.482 264.674 181.829 264.674 182.256C264.674 182.683 265.021 183.03 265.448 183.03H274.208C274.636 183.03 274.982 182.683 274.982 182.256C274.982 181.829 274.636 181.482 274.208 181.482Z" fill="white"/>
<path d="M295.703 181.482H286.942C286.515 181.482 286.168 181.829 286.168 182.256C286.168 182.683 286.515 183.03 286.942 183.03H295.703C296.13 183.03 296.476 182.683 296.476 182.256C296.476 181.829 296.13 181.482 295.703 181.482Z" fill="white"/>
<path d="M266.772 185.104H265.362C264.935 185.104 264.588 185.45 264.588 185.878C264.588 186.305 264.935 186.651 265.362 186.651H266.772C267.199 186.651 267.545 186.305 267.545 185.878C267.545 185.45 267.199 185.104 266.772 185.104Z" fill="white"/>
<path d="M282.892 185.104H281.483C281.055 185.104 280.709 185.45 280.709 185.878C280.709 186.305 281.055 186.651 281.483 186.651H282.892C283.32 186.651 283.666 186.305 283.666 185.878C283.666 185.45 283.32 185.104 282.892 185.104Z" fill="white"/>
<path d="M287.46 185.104H286.05C285.623 185.104 285.277 185.45 285.277 185.878C285.277 186.305 285.623 186.651 286.05 186.651H287.46C287.887 186.651 288.234 186.305 288.234 185.878C288.234 185.45 287.887 185.104 287.46 185.104Z" fill="white"/>
<path d="M278.508 184.975H269.747C269.32 184.975 268.973 185.321 268.973 185.749C268.973 186.176 269.32 186.522 269.747 186.522H278.508C278.935 186.522 279.281 186.176 279.281 185.749C279.281 185.321 278.935 184.975 278.508 184.975Z" fill="white"/>
<path d="M300.001 184.975H291.241C290.814 184.975 290.467 185.321 290.467 185.749C290.467 186.176 290.814 186.522 291.241 186.522H300.001C300.429 186.522 300.775 186.176 300.775 185.749C300.775 185.321 300.429 184.975 300.001 184.975Z" fill="white"/>
<path d="M271.071 188.597H269.661C269.234 188.597 268.887 188.943 268.887 189.37C268.887 189.798 269.234 190.144 269.661 190.144H271.071C271.498 190.144 271.844 189.798 271.844 189.37C271.844 188.943 271.498 188.597 271.071 188.597Z" fill="white"/>
<path d="M287.191 188.597H285.782C285.354 188.597 285.008 188.943 285.008 189.37C285.008 189.798 285.354 190.144 285.782 190.144H287.191C287.618 190.144 287.965 189.798 287.965 189.37C287.965 188.943 287.618 188.597 287.191 188.597Z" fill="white"/>
<path d="M291.758 188.597H290.349C289.922 188.597 289.575 188.943 289.575 189.37C289.575 189.798 289.922 190.144 290.349 190.144H291.758C292.186 190.144 292.532 189.798 292.532 189.37C292.532 188.943 292.186 188.597 291.758 188.597Z" fill="white"/>
<path d="M282.806 188.468H274.046C273.619 188.468 273.272 188.814 273.272 189.241C273.272 189.669 273.619 190.015 274.046 190.015H282.806C283.234 190.015 283.58 189.669 283.58 189.241C283.58 188.814 283.234 188.468 282.806 188.468Z" fill="white"/>
<path d="M274.295 202.485H272.885C272.458 202.485 272.111 202.832 272.111 203.259C272.111 203.687 272.458 204.033 272.885 204.033H274.295C274.722 204.033 275.068 203.687 275.068 203.259C275.068 202.832 274.722 202.485 274.295 202.485Z" fill="white"/>
<path d="M278.862 202.485H277.453C277.025 202.485 276.679 202.832 276.679 203.259C276.679 203.687 277.025 204.033 277.453 204.033H278.862C279.29 204.033 279.636 203.687 279.636 203.259C279.636 202.832 279.29 202.485 278.862 202.485Z" fill="white"/>
<path d="M291.404 202.614H282.643C282.216 202.614 281.87 202.961 281.87 203.388C281.87 203.816 282.216 204.162 282.643 204.162H291.404C291.831 204.162 292.178 203.816 292.178 203.388C292.178 202.961 291.831 202.614 291.404 202.614Z" fill="white"/>
<path d="M258.174 202.485H256.765C256.337 202.485 255.991 202.832 255.991 203.259C255.991 203.687 256.337 204.033 256.765 204.033H258.174C258.601 204.033 258.948 203.687 258.948 203.259C258.948 202.832 258.601 202.485 258.174 202.485Z" fill="white"/>
<path d="M269.91 202.614H261.15C260.722 202.614 260.376 202.961 260.376 203.388C260.376 203.816 260.722 204.162 261.15 204.162H269.91C270.337 204.162 270.684 203.816 270.684 203.388C270.684 202.961 270.337 202.614 269.91 202.614Z" fill="white"/>
<path d="M262.473 198.993H261.063C260.636 198.993 260.29 199.339 260.29 199.766C260.29 200.194 260.636 200.54 261.063 200.54H262.473C262.9 200.54 263.247 200.194 263.247 199.766C263.247 199.339 262.9 198.993 262.473 198.993Z" fill="white"/>
<path d="M278.593 198.993H277.184C276.757 198.993 276.41 199.339 276.41 199.766C276.41 200.194 276.757 200.54 277.184 200.54H278.593C279.021 200.54 279.367 200.194 279.367 199.766C279.367 199.339 279.021 198.993 278.593 198.993Z" fill="white"/>
<path d="M283.161 198.993H281.752C281.324 198.993 280.978 199.339 280.978 199.766C280.978 200.194 281.324 200.54 281.752 200.54H283.161C283.588 200.54 283.935 200.194 283.935 199.766C283.935 199.339 283.588 198.993 283.161 198.993Z" fill="white"/>
<path d="M274.208 199.122H265.448C265.021 199.122 264.674 199.468 264.674 199.895C264.674 200.323 265.021 200.669 265.448 200.669H274.208C274.636 200.669 274.982 200.323 274.982 199.895C274.982 199.468 274.636 199.122 274.208 199.122Z" fill="white"/>
<path d="M266.772 195.5H265.362C264.935 195.5 264.588 195.846 264.588 196.274C264.588 196.701 264.935 197.047 265.362 197.047H266.772C267.199 197.047 267.545 196.701 267.545 196.274C267.545 195.846 267.199 195.5 266.772 195.5Z" fill="white"/>
<path d="M282.892 195.5H281.483C281.055 195.5 280.709 195.846 280.709 196.274C280.709 196.701 281.055 197.047 281.483 197.047H282.892C283.32 197.047 283.666 196.701 283.666 196.274C283.666 195.846 283.32 195.5 282.892 195.5Z" fill="white"/>
<path d="M287.46 195.5H286.05C285.623 195.5 285.277 195.846 285.277 196.274C285.277 196.701 285.623 197.047 286.05 197.047H287.46C287.887 197.047 288.234 196.701 288.234 196.274C288.234 195.846 287.887 195.5 287.46 195.5Z" fill="white"/>
<path d="M278.508 195.629H269.747C269.32 195.629 268.973 195.975 268.973 196.403C268.973 196.83 269.32 197.176 269.747 197.176H278.508C278.935 197.176 279.281 196.83 279.281 196.403C279.281 195.975 278.935 195.629 278.508 195.629Z" fill="white"/>
<path d="M271.071 192.007H269.661C269.234 192.007 268.887 192.354 268.887 192.781C268.887 193.208 269.234 193.555 269.661 193.555H271.071C271.498 193.555 271.844 193.208 271.844 192.781C271.844 192.354 271.498 192.007 271.071 192.007Z" fill="white"/>
<path d="M287.191 192.007H285.782C285.354 192.007 285.008 192.354 285.008 192.781C285.008 193.208 285.354 193.555 285.782 193.555H287.191C287.618 193.555 287.965 193.208 287.965 192.781C287.965 192.354 287.618 192.007 287.191 192.007Z" fill="white"/>
<path d="M291.758 192.007H290.349C289.922 192.007 289.575 192.354 289.575 192.781C289.575 193.208 289.922 193.555 290.349 193.555H291.758C292.186 193.555 292.532 193.208 292.532 192.781C292.532 192.354 292.186 192.007 291.758 192.007Z" fill="white"/>
<path d="M282.806 192.136H274.046C273.619 192.136 273.272 192.483 273.272 192.91C273.272 193.337 273.619 193.684 274.046 193.684H282.806C283.234 193.684 283.58 193.337 283.58 192.91C283.58 192.483 283.234 192.136 282.806 192.136Z" fill="white"/>
<path d="M250.68 243.42L244.063 232.96L264.833 216.404L273.406 206.906C274.519 205.672 275.937 204.752 277.518 204.238C279.099 203.724 280.787 203.634 282.413 203.976C284.04 204.319 285.548 205.082 286.787 206.19C288.026 207.298 288.953 208.712 289.474 210.29C290.247 212.629 290.081 215.177 289.011 217.396C287.941 219.614 286.051 221.33 283.739 222.182L270.183 227.176L250.68 243.42Z" fill="#FFB6B6"/>
<path d="M95.4241 167.582V218.418H131.038V167.582C131.038 167.217 130.922 166.86 130.705 166.566C130.488 166.272 130.183 166.055 129.833 165.947C129.669 165.892 129.496 165.865 129.323 165.867H97.144C96.9185 165.867 96.695 165.911 96.4865 165.997C96.2779 166.083 96.0884 166.209 95.9286 166.368C95.7689 166.528 95.6421 166.717 95.5555 166.925C95.4689 167.133 95.4243 167.357 95.4241 167.582ZM109.323 185.05C109.332 184.047 109.736 183.089 110.448 182.384C111.16 181.679 112.122 181.283 113.124 181.283C114.127 181.283 115.088 181.679 115.8 182.384C116.512 183.089 116.917 184.047 116.926 185.05V190.948C116.921 191.953 116.518 192.915 115.806 193.624C115.093 194.333 114.129 194.73 113.124 194.73C112.119 194.73 111.155 194.333 110.443 193.624C109.73 192.915 109.328 191.953 109.323 190.948V185.05Z" fill="#3B5249"/>
<path d="M95.3152 216.792V221.694C95.316 221.948 95.4169 222.192 95.596 222.372C95.7751 222.552 96.0179 222.654 96.2718 222.656H130.19C130.444 222.655 130.688 222.553 130.867 222.372C131.046 222.192 131.147 221.948 131.147 221.694V216.792H95.3152Z" fill="#519872"/>
<path d="M39.3989 90.992V183.81C39.3999 184.993 39.8702 186.127 40.7066 186.964C41.5429 187.8 42.6771 188.27 43.8599 188.271H181.407C182.59 188.27 183.724 187.8 184.561 186.964C185.397 186.127 185.867 184.993 185.868 183.81V90.992C185.865 89.8102 185.394 88.6776 184.558 87.8424C183.722 87.0072 182.589 86.5375 181.407 86.5359H43.8599C42.6781 86.5375 41.5451 87.0073 40.7089 87.8425C39.8728 88.6777 39.4017 89.8102 39.3989 90.992Z" fill="#519872"/>
<path d="M42.6257 92.1469V182.665C42.6268 183.297 42.8783 183.903 43.3252 184.35C43.7721 184.797 44.3779 185.048 45.0099 185.05H180.262C180.894 185.048 181.5 184.797 181.947 184.35C182.394 183.903 182.645 183.297 182.646 182.665V92.1469C182.646 91.5141 182.395 90.9072 181.948 90.4593C181.501 90.0114 180.895 89.7591 180.262 89.7578H45.0099C44.3771 89.7591 43.7708 90.0114 43.3238 90.4593C42.8768 90.9072 42.6258 91.5141 42.6257 92.1469Z" fill="white"/>
<path d="M67.7265 222.324C67.8641 222.496 68.0391 222.635 68.2383 222.731C68.4375 222.826 68.6556 222.875 68.8764 222.874H149.343C149.563 222.874 149.78 222.824 149.979 222.729C150.177 222.635 150.352 222.497 150.491 222.326C150.63 222.155 150.728 221.955 150.78 221.741C150.832 221.528 150.835 221.305 150.79 221.089L149.541 215.156C149.489 214.914 149.378 214.689 149.217 214.501C149.056 214.314 148.85 214.169 148.619 214.081C148.452 214.015 148.274 213.981 148.094 213.982H70.1205C69.9407 213.981 69.7625 214.015 69.5951 214.081C69.3639 214.169 69.1585 214.313 68.9974 214.501C68.8364 214.689 68.725 214.914 68.6732 215.156L67.4241 221.089C67.3797 221.305 67.3837 221.527 67.436 221.741C67.4884 221.954 67.5876 222.153 67.7265 222.324Z" fill="#3B5249"/>
<path d="M175.873 102.227H49.3179C49.1864 102.224 49.0612 102.17 48.9692 102.076C48.8772 101.982 48.8257 101.855 48.8257 101.724C48.8257 101.592 48.8772 101.466 48.9692 101.372C49.0612 101.278 49.1864 101.223 49.3179 101.221H175.873C176.005 101.223 176.13 101.278 176.222 101.372C176.314 101.466 176.365 101.592 176.365 101.724C176.365 101.855 176.314 101.982 176.222 102.076C176.13 102.17 176.005 102.224 175.873 102.227Z" fill="#519872"/>
<path d="M57.9326 98.6509C59.5615 98.6509 60.882 97.301 60.882 95.6358C60.882 93.9705 59.5615 92.6206 57.9326 92.6206C56.3037 92.6206 54.9832 93.9705 54.9832 95.6358C54.9832 97.301 56.3037 98.6509 57.9326 98.6509Z" fill="#519872"/>
<path d="M68.1215 98.6509C69.7505 98.6509 71.071 97.301 71.071 95.6358C71.071 93.9705 69.7505 92.6206 68.1215 92.6206C66.4926 92.6206 65.1721 93.9705 65.1721 95.6358C65.1721 97.301 66.4926 98.6509 68.1215 98.6509Z" fill="#519872"/>
<path d="M78.3105 98.6509C79.9394 98.6509 81.2599 97.301 81.2599 95.6358C81.2599 93.9705 79.9394 92.6206 78.3105 92.6206C76.6816 92.6206 75.3611 93.9705 75.3611 95.6358C75.3611 97.301 76.6816 98.6509 78.3105 98.6509Z" fill="#519872"/>
<path d="M169.738 93.3662H162.501C162.358 93.3696 162.222 93.4287 162.122 93.5311C162.022 93.6334 161.966 93.7709 161.966 93.9139C161.966 94.057 162.022 94.1945 162.122 94.2968C162.222 94.3992 162.358 94.4583 162.501 94.4617H169.738C169.882 94.4596 170.019 94.401 170.12 94.2985C170.221 94.196 170.278 94.0579 170.278 93.9139C170.278 93.77 170.221 93.6319 170.12 93.5294C170.019 93.4269 169.882 93.3683 169.738 93.3662Z" fill="#519872"/>
<path d="M169.738 95.4232H162.501C162.358 95.4264 162.221 95.4855 162.121 95.5879C162.021 95.6903 161.965 95.8278 161.965 95.971C161.965 96.1142 162.021 96.2517 162.121 96.354C162.221 96.4564 162.358 96.5155 162.501 96.5187H169.738C169.882 96.5169 170.019 96.4585 170.121 96.3559C170.222 96.2534 170.279 96.1151 170.279 95.971C170.279 95.8268 170.222 95.6885 170.121 95.586C170.019 95.4835 169.882 95.425 169.738 95.4232Z" fill="#519872"/>
<path d="M169.738 97.4802H162.501C162.358 97.4836 162.222 97.5427 162.122 97.6451C162.022 97.7474 161.966 97.8849 161.966 98.0279C161.966 98.171 162.022 98.3084 162.122 98.4108C162.222 98.5131 162.358 98.5723 162.501 98.5756H169.738C169.882 98.5736 170.019 98.515 170.12 98.4125C170.221 98.31 170.278 98.1719 170.278 98.0279C170.278 97.884 170.221 97.7458 170.12 97.6433C170.019 97.5409 169.882 97.4823 169.738 97.4802Z" fill="#519872"/>
<path d="M344.202 218.943C344.42 219.579 344.835 220.13 345.385 220.515C345.936 220.901 346.594 221.102 347.267 221.09L360.398 220.752C361.075 220.739 361.729 220.507 362.264 220.091C362.798 219.675 363.184 219.097 363.362 218.444L365.22 198.574C365.88 198.873 366.597 199.02 367.321 199.006C367.95 198.99 368.569 198.85 369.144 198.595C369.719 198.34 370.238 197.974 370.671 197.519C371.104 197.063 371.444 196.526 371.67 195.939C371.896 195.353 372.004 194.727 371.988 194.098C371.972 193.47 371.833 192.85 371.578 192.275C371.323 191.701 370.957 191.182 370.501 190.748C370.045 190.315 369.509 189.976 368.922 189.75C368.335 189.524 367.709 189.415 367.081 189.431C366.791 189.43 366.503 189.46 366.22 189.521C365.913 189.188 365.539 188.923 365.123 188.744C364.706 188.564 364.257 188.474 363.804 188.478L343.606 189C343.438 189.006 343.271 189.027 343.107 189.062C342.664 189.144 342.244 189.321 341.875 189.579C341.506 189.838 341.197 190.172 340.968 190.561C340.739 190.949 340.596 191.381 340.548 191.829C340.501 192.278 340.55 192.731 340.692 193.158L344.202 218.943ZM365.602 197.225L366.924 192.49C367.074 191.943 367.078 191.366 366.934 190.817C366.998 190.817 367.055 190.787 367.119 190.787C368.025 190.768 368.902 191.109 369.558 191.736C370.213 192.363 370.593 193.224 370.614 194.131C370.635 195.038 370.296 195.916 369.671 196.572C369.046 197.229 368.186 197.612 367.279 197.635C366.693 197.654 366.113 197.512 365.602 197.225Z" fill="#3B5249"/>
<path d="M343.107 189.062C343.538 191.522 348.376 193.252 354.193 192.951C359.543 192.705 363.917 190.826 364.718 188.6C364.422 188.512 364.113 188.471 363.804 188.478L343.606 189C343.438 189.006 343.271 189.027 343.107 189.062Z" fill="#519872"/>
<path d="M355.26 208.025C355.286 208.018 355.312 208.007 355.334 207.992L358.186 206.125C358.221 206.103 358.249 206.072 358.269 206.036C358.288 206 358.298 205.959 358.298 205.918C358.298 205.877 358.288 205.837 358.269 205.8C358.249 205.764 358.221 205.733 358.186 205.711L355.222 203.77C355.195 203.752 355.165 203.739 355.133 203.733C355.101 203.727 355.068 203.727 355.036 203.733C355.004 203.74 354.973 203.753 354.946 203.771C354.919 203.79 354.896 203.813 354.878 203.84C354.861 203.868 354.848 203.898 354.842 203.93C354.836 203.962 354.836 203.995 354.843 204.027C354.85 204.059 354.863 204.089 354.881 204.116C354.9 204.143 354.923 204.166 354.951 204.184L357.598 205.918L355.063 207.577C355.014 207.609 354.978 207.658 354.961 207.714C354.945 207.77 354.948 207.831 354.972 207.884C354.995 207.938 355.037 207.981 355.09 208.007C355.143 208.033 355.203 208.039 355.26 208.025Z" fill="#A4B494"/>
<path d="M350.755 208.233C350.803 208.22 350.846 208.194 350.879 208.157C350.912 208.121 350.933 208.075 350.94 208.026C350.947 207.977 350.939 207.927 350.917 207.883C350.895 207.839 350.861 207.802 350.818 207.777L348.189 206.27L350.73 204.383C350.756 204.364 350.778 204.339 350.795 204.312C350.812 204.284 350.823 204.253 350.827 204.221C350.832 204.188 350.83 204.156 350.822 204.124C350.815 204.092 350.801 204.063 350.781 204.037C350.762 204.011 350.737 203.989 350.709 203.972C350.682 203.955 350.651 203.944 350.618 203.939C350.586 203.935 350.553 203.936 350.522 203.944C350.49 203.952 350.461 203.966 350.435 203.986L347.59 206.098C347.557 206.123 347.531 206.155 347.513 206.193C347.496 206.23 347.488 206.271 347.49 206.312C347.493 206.353 347.505 206.393 347.527 206.428C347.549 206.463 347.579 206.492 347.615 206.512L350.571 208.207C350.627 208.239 350.693 208.248 350.755 208.233Z" fill="#A4B494"/>
<path d="M354.976 209.66C355 209.654 355.023 209.645 355.044 209.632C355.072 209.615 355.096 209.593 355.115 209.566C355.134 209.54 355.148 209.51 355.156 209.479C355.164 209.447 355.165 209.414 355.16 209.382C355.155 209.35 355.144 209.319 355.127 209.291L351.084 202.645C351.05 202.589 350.995 202.549 350.931 202.534C350.867 202.518 350.8 202.529 350.744 202.563C350.688 202.597 350.648 202.652 350.632 202.716C350.616 202.78 350.627 202.847 350.661 202.903L354.703 209.549C354.731 209.594 354.772 209.63 354.821 209.65C354.87 209.67 354.925 209.673 354.976 209.66Z" fill="#A4B494"/>
<path d="M127.717 129.588H105.813C104.919 129.588 104.195 130.312 104.195 131.206V133.346C104.195 134.239 104.919 134.963 105.813 134.963H127.717C128.61 134.963 129.335 134.239 129.335 133.346V131.206C129.335 130.312 128.61 129.588 127.717 129.588Z" fill="#A4B494"/>
<path d="M140.484 140.339H93.0452C92.1516 140.339 91.4272 141.064 91.4272 141.957V144.097C91.4272 144.991 92.1516 145.715 93.0452 145.715H140.484C141.378 145.715 142.102 144.991 142.102 144.097V141.957C142.102 141.064 141.378 140.339 140.484 140.339Z" fill="#E6E6E6"/>
<path d="M140.484 151.091H93.0452C92.1516 151.091 91.4272 151.815 91.4272 152.709V154.849C91.4272 155.743 92.1516 156.467 93.0452 156.467H140.484C141.378 156.467 142.102 155.743 142.102 154.849V152.709C142.102 151.815 141.378 151.091 140.484 151.091Z" fill="#E6E6E6"/>
<path d="M144.506 187.094L144.613 187.433L144.619 187.445L147.853 197.278L151.574 208.609L158.574 229.904L158.642 233.211V233.223L159.162 259.832L157.72 263.44L159.343 269.354C159.343 269.354 158.596 260.414 154.593 265.548C152.326 268.466 149.674 271.451 147.497 274.25C150.669 275.534 153.892 276.695 157.166 277.733C157.873 277.96 158.585 278.174 159.298 278.389C159.45 278.435 159.603 278.48 159.756 278.525C170.608 281.734 181.827 283.538 193.139 283.891C193.727 283.908 194.304 283.919 194.864 283.931C195.062 283.936 195.254 283.942 195.446 283.942C196.079 283.948 196.707 283.953 197.34 283.953C198.618 283.953 199.89 283.934 201.157 283.897C210.532 283.633 219.852 282.372 228.96 280.137C228.897 276.376 228.728 271.983 228.485 267.29C228.372 264.988 225.833 262.495 225.68 260.086C225.573 258.277 227.851 256.575 227.733 254.737C226.964 243.423 226.002 247.766 225.29 239.754C225.216 238.968 225.149 238.216 225.086 237.498C224.628 232.352 224.312 229.135 224.312 229.135L227.354 209.961L232.132 179.857L231.764 179.252L231.351 179.048L206.15 166.574L204.781 163.069C204.383 162.059 203.691 161.191 202.795 160.577C201.899 159.964 200.841 159.632 199.755 159.625L183.153 159.557C182.292 159.553 181.442 159.755 180.674 160.145C179.906 160.536 179.242 161.104 178.737 161.802L174.242 168.028L144.506 187.094Z" fill="#519872"/>
<path d="M162.402 225.165L158.642 233.211L156.075 238.708L151.659 261.828L149.448 264.175L147.553 255.868L127.728 260.27C127.078 256.657 127.554 260.392 127.152 256.428C127.265 256.315 127.384 256.202 127.503 256.089C127.82 255.795 128.085 255.518 128.08 255.252C127.853 241.58 128.532 218.312 134.198 204.216C135.085 201.914 136.255 199.732 137.681 197.719C137.794 197.566 137.901 197.413 138.009 197.261C140.621 193.602 142.272 190.001 144.613 187.439V187.433C144.628 187.422 144.641 187.408 144.653 187.394C144.661 187.39 144.669 187.384 144.675 187.377L160.756 178.85L161.446 198.233L161.938 212.166L162.402 225.165Z" fill="#519872"/>
<path d="M220.387 227.451L225.084 237.5L226.723 241L231.138 264.119L233.342 266.46L235.241 258.155L236.133 257.972L252.221 254.64L256.91 269.532C257.967 267.771 258.384 265.7 258.089 263.667C257.795 261.634 256.807 259.766 255.294 258.377C254.974 258.087 254.707 257.805 254.715 257.539C254.981 241.458 253.998 212.094 245.115 200.009C242.294 196.173 240.601 192.353 238.138 189.684C238.13 189.677 238.13 189.669 238.123 189.669L232.13 179.856L231.764 179.254L231.352 179.048L220.387 227.451Z" fill="#519872"/>
<path d="M191.934 154.833C204.131 154.833 214.02 144.945 214.02 132.747C214.02 120.549 204.131 110.661 191.934 110.661C179.736 110.661 169.848 120.549 169.848 132.747C169.848 144.945 179.736 154.833 191.934 154.833Z" fill="#FFB6B6"/>
<path d="M221.786 117.32C221.614 117.137 221.408 116.99 221.179 116.889C220.95 116.788 220.703 116.734 220.452 116.73L220.784 115.808C220.893 115.518 220.922 115.204 220.869 114.898C220.816 114.593 220.683 114.307 220.483 114.07C220.284 113.833 220.024 113.653 219.732 113.549C219.44 113.445 219.126 113.421 218.821 113.478L217.612 113.711L217.726 112.903C217.77 112.602 217.734 112.295 217.623 112.012C217.512 111.729 217.33 111.48 217.093 111.289C216.857 111.098 216.574 110.972 216.274 110.923C215.974 110.874 215.666 110.904 215.382 111.01C215.122 111.112 214.843 111.155 214.566 111.135C214.288 111.115 214.018 111.034 213.776 110.896C213.532 110.762 213.321 110.578 213.157 110.354C212.992 110.131 212.879 109.874 212.824 109.602L212.403 107.57L212.358 107.461C210.306 104.041 206.36 101.553 201.533 100.641C197.235 99.8227 192.829 100.239 188.581 100.631C186.896 100.789 184.992 100.968 183.406 101.939C182.058 102.772 180.918 104.437 181.151 106.118C176.962 104.834 172.472 107.396 170.246 110.628C167.609 114.475 167.178 119.292 167.109 123.06C166.92 131.972 168.759 139.263 172.561 144.735C172.838 145.132 172.908 145.959 173.458 146.237L173.344 146.053C173.959 146.361 174.583 146.856 174.35 147.387C173.681 148.913 178.127 152.289 181.26 153.404C186.975 155.441 194.573 155.268 199.917 154.534L200.105 153.27C202.033 153.008 203.391 152.507 203.773 151.724C204.447 151.149 205.022 150.633 205.523 150.158L205.528 150.153C205.538 150.143 205.557 150.128 205.567 150.118C207.981 147.803 208.541 146.485 208.794 144.477C209.037 142.51 208.606 140.512 208.165 138.713C217.453 140.15 204.507 128.819 213.161 126.628C213.26 126.598 213.361 126.573 213.463 126.554C213.716 126.495 213.969 126.435 214.212 126.366C215.382 126.048 216.503 125.569 217.543 124.943C219.961 123.471 220.759 121.518 222.009 119.317C222.189 119.004 222.264 118.641 222.224 118.282C222.184 117.923 222.03 117.586 221.786 117.32Z" fill="#3B5249"/>
<path d="M270.049 229.023C270.044 229.89 270.034 231.105 269.994 232.607C269.989 232.815 269.984 233.028 269.979 233.246C269.915 236.007 269.85 238.322 269.746 240.894C269.741 241.073 269.736 241.246 269.726 241.425C269.588 245.013 269.37 249.192 268.993 255.809C268.294 268.032 267.075 257.489 265.85 261.777C265.791 261.99 265.726 262.243 265.667 262.54C265.482 263.619 265.169 264.672 264.735 265.678C264.086 266.064 263.417 266.436 262.757 266.808C260.879 267.854 258.97 268.86 257.047 269.816C255.967 270.352 254.881 270.877 253.791 271.383C253.617 271.462 253.449 271.541 253.28 271.616C247.696 274.199 241.941 276.395 236.056 278.188C234.906 278.535 233.761 278.872 232.601 279.184C231.392 279.522 230.182 279.839 228.958 280.136C219.85 282.372 210.53 283.633 201.156 283.898C199.892 283.938 198.618 283.953 197.339 283.953C196.705 283.953 196.08 283.948 195.446 283.943C195.253 283.943 195.059 283.938 194.866 283.933C194.306 283.918 193.726 283.908 193.141 283.893C181.829 283.54 170.61 281.736 159.758 278.525L159.297 278.391C158.583 278.173 157.874 277.96 157.166 277.732C153.894 276.696 150.671 275.536 147.495 274.253C145.071 273.276 142.676 272.229 140.308 271.11C140.286 271.104 140.266 271.094 140.249 271.08C139.753 270.852 139.252 270.614 138.757 270.372C138.692 270.337 138.623 270.302 138.553 270.267C136.705 269.365 134.875 268.42 133.066 267.432C131.545 263.938 129.403 263.269 128.075 260.195C127.688 259.282 127.409 258.328 127.242 257.35C127.242 257.34 127.237 257.331 127.237 257.316C127.376 259.16 126.647 254.044 127.232 257.296C127.227 257.236 127.222 257.172 127.217 257.098C127.203 256.919 127.183 256.701 127.153 256.428C125.453 239.829 125.562 220.845 124.823 205.201C124.774 204.19 124.723 203.222 124.67 202.297C124.655 201.989 124.635 201.687 124.615 201.39C124.65 201.3 124.69 201.206 124.734 201.117C124.744 201.091 124.755 201.066 124.769 201.043C124.784 201.012 124.8 200.982 124.818 200.953C124.828 200.939 124.843 200.919 124.853 200.904C124.86 200.887 124.869 200.87 124.878 200.854C124.923 200.785 124.972 200.711 125.027 200.641C125.051 200.611 125.071 200.587 125.096 200.562C125.113 200.537 125.133 200.513 125.156 200.493C125.171 200.469 125.189 200.447 125.21 200.428C125.23 200.408 125.25 200.383 125.274 200.359C125.285 200.343 125.299 200.33 125.314 200.319C125.353 200.274 125.396 200.233 125.443 200.195C125.62 200.032 125.809 199.883 126.008 199.749C126.077 199.704 126.152 199.66 126.221 199.61C126.721 199.311 127.247 199.059 127.792 198.857C127.981 198.787 128.169 198.723 128.372 198.654C128.447 198.634 128.516 198.609 128.59 198.584C128.7 198.55 128.809 198.515 128.923 198.49C129.488 198.322 130.097 198.178 130.757 198.044C130.836 198.029 130.92 198.014 131.004 197.994C131.123 197.97 131.247 197.95 131.371 197.93C131.54 197.9 131.713 197.87 131.887 197.841C133.359 197.608 135.029 197.434 136.873 197.32C137.047 197.31 137.22 197.3 137.394 197.291C137.597 197.281 137.8 197.271 138.008 197.261C138.182 197.251 138.36 197.246 138.538 197.241C138.712 197.231 138.89 197.226 139.074 197.221C139.574 197.206 140.09 197.191 140.615 197.181C142.112 197.152 143.688 197.162 145.344 197.196C146.112 197.216 146.895 197.236 147.698 197.271C147.753 197.271 147.802 197.276 147.852 197.276C148.551 197.3 149.255 197.33 149.978 197.37C150.484 197.395 150.995 197.419 151.505 197.449C151.986 197.479 152.472 197.509 152.962 197.543C153.344 197.563 153.726 197.593 154.112 197.618C154.439 197.642 154.767 197.667 155.094 197.687L155.54 197.717C155.783 197.737 156.026 197.752 156.273 197.776C156.819 197.821 157.364 197.866 157.919 197.91C158.469 197.96 159.029 198.009 159.589 198.059C160.15 198.108 160.715 198.163 161.28 198.217C161.339 198.222 161.394 198.227 161.448 198.232C161.964 198.287 162.479 198.336 163 198.391C163.119 198.401 163.242 198.411 163.361 198.426C163.858 198.475 164.364 198.534 164.864 198.587C165.018 198.604 165.171 198.62 165.325 198.637C165.717 198.679 166.104 198.716 166.499 198.763C167.019 198.822 167.55 198.877 168.065 198.946C168.467 198.991 168.868 199.035 169.27 199.085C169.899 199.159 170.539 199.239 171.178 199.323C171.421 199.353 171.664 199.382 171.907 199.417C173.731 199.645 175.575 199.898 177.448 200.16C180.288 200.562 183.173 200.998 186.078 201.469C188.987 201.94 191.913 202.437 194.856 202.961C195.6 203.095 196.343 203.229 197.091 203.367C197.429 203.432 197.766 203.496 198.103 203.561C198.678 203.665 199.253 203.774 199.828 203.883C200.403 203.992 200.977 204.101 201.552 204.215C202.236 204.349 202.925 204.483 203.609 204.616C208.115 205.509 212.596 206.46 216.968 207.457C217.686 207.62 218.405 207.789 219.119 207.952C220.546 208.284 221.961 208.621 223.362 208.963C223.748 209.053 224.13 209.147 224.512 209.241C225.463 209.479 226.415 209.717 227.352 209.96L227.515 210.004C228.204 210.173 228.879 210.346 229.553 210.525C231.144 210.941 232.708 211.362 234.247 211.789C235.268 212.071 236.277 212.357 237.275 212.646C238.767 213.077 240.229 213.514 241.652 213.955C242.004 214.064 242.356 214.173 242.703 214.277C243.744 214.599 244.77 214.926 245.766 215.253C246.559 215.511 247.332 215.774 248.095 216.037C248.859 216.299 249.607 216.562 250.341 216.825C250.812 216.993 251.278 217.172 251.744 217.34C252.413 217.588 253.072 217.836 253.716 218.084C253.915 218.158 254.108 218.237 254.301 218.312C254.425 218.366 254.544 218.411 254.663 218.46C254.896 218.555 255.134 218.644 255.362 218.738C255.595 218.827 255.823 218.921 256.051 219.021C256.274 219.11 256.502 219.204 256.72 219.298C256.943 219.387 257.161 219.481 257.379 219.581C257.563 219.655 257.741 219.734 257.915 219.814C258.267 219.967 258.619 220.121 258.961 220.28C259.129 220.359 259.298 220.433 259.466 220.512L259.853 220.691C259.907 220.721 259.962 220.745 260.016 220.77C260.14 220.83 260.269 220.894 260.393 220.954C260.68 221.087 260.963 221.231 261.241 221.365C261.612 221.553 261.974 221.742 262.321 221.925C262.673 222.113 263.015 222.302 263.342 222.485C263.397 222.515 263.446 222.545 263.501 222.574C263.575 222.614 263.65 222.659 263.724 222.698C263.977 222.842 264.22 222.991 264.462 223.135C264.938 223.427 265.389 223.714 265.811 224.002C265.905 224.066 265.994 224.131 266.088 224.19C266.4 224.413 266.698 224.631 266.975 224.854C266.975 224.859 266.975 224.859 266.98 224.859C267.075 224.929 267.164 225.003 267.253 225.073C267.327 225.142 267.407 225.201 267.481 225.271C267.739 225.494 267.977 225.707 268.195 225.925C268.268 225.992 268.337 226.064 268.403 226.138C268.432 226.162 268.458 226.189 268.482 226.218C268.581 226.317 268.671 226.416 268.755 226.515C268.768 226.529 268.78 226.544 268.79 226.56C268.909 226.698 269.018 226.837 269.122 226.976C269.171 227.045 269.226 227.115 269.27 227.184C269.33 227.268 269.389 227.358 269.439 227.442C269.483 227.511 269.523 227.586 269.563 227.655C269.668 227.834 269.758 228.021 269.83 228.215C269.886 228.347 269.931 228.483 269.964 228.622C270.002 228.753 270.03 228.887 270.049 229.023Z" fill="#3B5249"/>
<path opacity="0.2" d="M270.048 229.023C270.044 229.89 270.034 231.105 269.994 232.607C269.989 232.815 269.979 233.028 269.974 233.246C269.925 235.353 269.85 237.955 269.746 240.894C269.741 241.073 269.736 241.246 269.726 241.425C269.587 245.013 269.369 249.192 268.993 255.809C268.294 268.032 267.074 257.489 265.85 261.777C262.45 259.685 258.722 257.494 254.737 255.244C254.019 254.837 253.293 254.429 252.561 254.02C244.591 249.573 235.689 244.914 226.395 240.299C226.028 240.116 225.657 239.933 225.29 239.754C204.001 229.231 180.764 218.996 161.939 212.165C158.306 210.847 154.836 209.657 151.574 208.612C144.704 206.416 138.766 204.879 134.196 204.215C129.438 203.521 126.152 203.769 124.823 205.201C124.774 204.19 124.722 203.222 124.67 202.297C124.65 201.989 124.63 201.687 124.61 201.39C124.641 201.308 124.68 201.23 124.719 201.152C124.724 201.14 124.728 201.128 124.734 201.117C124.744 201.091 124.755 201.066 124.769 201.043C124.783 201.012 124.8 200.982 124.818 200.953C124.834 200.918 124.854 200.885 124.878 200.854C124.922 200.785 124.972 200.711 125.026 200.641C125.067 200.589 125.11 200.54 125.155 200.492C125.171 200.469 125.189 200.447 125.21 200.428C125.23 200.408 125.25 200.383 125.274 200.359C125.285 200.343 125.298 200.33 125.314 200.319C125.353 200.274 125.396 200.233 125.443 200.195C125.62 200.032 125.809 199.883 126.008 199.749C126.077 199.704 126.152 199.66 126.221 199.61C126.721 199.311 127.247 199.059 127.792 198.857C127.981 198.787 128.169 198.723 128.372 198.654C128.447 198.634 128.516 198.609 128.59 198.584C128.699 198.55 128.808 198.515 128.922 198.49C129.487 198.322 130.097 198.178 130.756 198.044C130.955 198.004 131.163 197.965 131.371 197.93C131.54 197.9 131.713 197.87 131.886 197.841C133.359 197.608 135.029 197.434 136.873 197.32C137.046 197.31 137.22 197.3 137.393 197.29C137.597 197.281 137.8 197.271 138.008 197.261C138.181 197.251 138.36 197.246 138.538 197.241C138.712 197.231 138.89 197.226 139.074 197.221C139.574 197.206 140.09 197.191 140.615 197.181C142.112 197.157 143.688 197.167 145.344 197.201C146.112 197.216 146.895 197.241 147.698 197.276C147.748 197.276 147.802 197.281 147.852 197.281C148.551 197.3 149.26 197.335 149.978 197.37C150.484 197.395 150.994 197.419 151.505 197.449C151.986 197.479 152.471 197.509 152.962 197.543C153.344 197.563 153.726 197.593 154.112 197.618C154.439 197.642 154.766 197.667 155.094 197.687C155.485 197.717 155.877 197.747 156.273 197.776C156.818 197.821 157.364 197.865 157.919 197.91C158.469 197.96 159.029 198.009 159.589 198.059C160.149 198.108 160.714 198.163 161.279 198.217C161.339 198.222 161.393 198.227 161.448 198.232C161.963 198.287 162.479 198.336 162.999 198.391C165.884 198.683 168.853 199.025 171.907 199.417C173.731 199.65 175.578 199.899 177.448 200.165C180.288 200.567 183.173 201.003 186.078 201.469C188.987 201.94 191.913 202.437 194.856 202.961C195.599 203.095 196.343 203.229 197.091 203.367C198.003 203.536 198.915 203.708 199.827 203.883C200.402 203.992 200.977 204.101 201.552 204.215C202.236 204.349 202.925 204.483 203.609 204.616C208.115 205.509 212.596 206.46 216.968 207.457C217.686 207.62 218.405 207.789 219.119 207.952C220.546 208.284 221.961 208.621 223.362 208.963C223.748 209.058 224.13 209.152 224.512 209.246C225.468 209.484 226.415 209.722 227.352 209.96V209.965C227.406 209.975 227.461 209.989 227.515 210.004C228.199 210.178 228.878 210.351 229.553 210.53C231.144 210.946 232.708 211.366 234.246 211.789C235.268 212.076 236.279 212.359 237.275 212.646C238.767 213.082 240.229 213.519 241.652 213.955C242.004 214.064 242.356 214.173 242.703 214.277C243.743 214.604 244.765 214.93 245.766 215.253C246.559 215.511 247.332 215.774 248.095 216.037C248.859 216.299 249.607 216.562 250.341 216.825C250.817 216.993 251.283 217.167 251.743 217.335C252.418 217.583 253.072 217.831 253.716 218.084C253.915 218.158 254.108 218.237 254.301 218.312C254.663 218.451 255.015 218.594 255.362 218.738C255.595 218.827 255.823 218.921 256.051 219.021C256.274 219.11 256.502 219.204 256.72 219.298C256.943 219.387 257.161 219.481 257.379 219.581C257.563 219.655 257.741 219.734 257.915 219.814C258.266 219.967 258.618 220.121 258.96 220.279C259.129 220.359 259.297 220.433 259.466 220.512L259.853 220.691C259.907 220.721 259.962 220.745 260.016 220.77C260.437 220.968 260.844 221.167 261.24 221.365C261.612 221.553 261.974 221.742 262.321 221.925C262.732 222.143 263.124 222.356 263.501 222.574C263.575 222.614 263.649 222.659 263.724 222.698C263.977 222.842 264.219 222.991 264.462 223.135C264.938 223.427 265.389 223.714 265.811 224.002C266.227 224.289 266.613 224.572 266.975 224.854C266.975 224.859 266.975 224.859 266.98 224.859C267.154 224.998 267.322 225.137 267.481 225.271C267.739 225.494 267.977 225.707 268.195 225.925C268.268 225.992 268.337 226.064 268.403 226.138C268.432 226.162 268.458 226.189 268.482 226.218C268.586 226.332 268.69 226.446 268.789 226.56C268.908 226.698 269.017 226.837 269.122 226.976C269.171 227.045 269.226 227.115 269.27 227.184C269.33 227.268 269.389 227.358 269.439 227.442C269.483 227.511 269.523 227.586 269.563 227.655C269.668 227.834 269.757 228.021 269.83 228.215C269.885 228.347 269.929 228.483 269.964 228.622C270.002 228.753 270.03 228.887 270.048 229.023Z" fill="black"/>
</g>
<defs>
<clipPath id="clip0_133_22">
<rect width="390" height="283.649" fill="white" transform="translate(0.409912 0.304504)"/>
</clipPath>
</defs>
</svg>
